<svg width="42" height="42" viewBox="0 0 42 42" fill="none" xmlns="http://www.w3.org/2000/svg">
<g filter="url(#filter0_d_1041_384)">
<rect x="7" y="4" width="28" height="28" rx="2" fill="white"/>
</g>
<g clip-path="url(#clip0_1041_384)">
<path d="M28.7033 9H14.2968V28H24.7363L25.5715 24.8681L28.7033 24.033V9Z" fill="white"/>
<path d="M24.7363 24.033V28L28.7034 24.033H24.7363Z" fill="#1A4164"/>
<path d="M26.1979 12.6538H20.1936C20.0206 12.6538 19.8804 12.5137 19.8804 12.3407C19.8804 12.1676 20.0206 12.0275 20.1936 12.0275H26.1979C26.3708 12.0275 26.511 12.1676 26.511 12.3407C26.511 12.5137 26.3708 12.6538 26.1979 12.6538Z" fill="#1A4164"/>
<path d="M17.6374 13.489C17.5573 13.489 17.4771 13.4584 17.416 13.3973L16.7896 12.7709C16.6673 12.6486 16.6673 12.4503 16.7896 12.328C16.9119 12.2057 17.1102 12.2057 17.2325 12.328L17.6374 12.7329L19.0863 11.2841C19.2086 11.1618 19.4069 11.1618 19.5292 11.2841C19.6515 11.4064 19.6515 11.6047 19.5292 11.727L17.8589 13.3973C17.7977 13.4584 17.7176 13.489 17.6374 13.489Z" fill="#1A4164"/>
<path d="M26.1978 15.5769H19.7253C19.5523 15.5769 19.4121 15.4367 19.4121 15.2637C19.4121 15.0907 19.5523 14.9505 19.7253 14.9505H26.1978C26.3708 14.9505 26.511 15.0907 26.511 15.2637C26.511 15.4367 26.3708 15.5769 26.1978 15.5769Z" fill="#1A4164"/>
<path d="M18.4726 14.4286H16.8022V16.0989H18.4726V14.4286Z" fill="#1A4164"/>
<path d="M26.1978 18.5H19.7253C19.5523 18.5 19.4121 18.3598 19.4121 18.1868C19.4121 18.0138 19.5523 17.8736 19.7253 17.8736H26.1978C26.3708 17.8736 26.511 18.0138 26.511 18.1868C26.511 18.3598 26.3708 18.5 26.1978 18.5Z" fill="#1A4164"/>
<path d="M18.4726 17.3517H16.8022V19.022H18.4726V17.3517Z" fill="#1A4164"/>
<path d="M26.1978 21.4231H19.7253C19.5523 21.4231 19.4121 21.2829 19.4121 21.1099C19.4121 20.9369 19.5523 20.7967 19.7253 20.7967H26.1978C26.3708 20.7967 26.511 20.9369 26.511 21.1099C26.511 21.2829 26.3708 21.4231 26.1978 21.4231Z" fill="#1A4164"/>
<path d="M18.4726 20.2747H16.8022V21.945H18.4726V20.2747Z" fill="#1A4164"/>
<path d="M23.4835 24.3462H19.7253C19.5523 24.3462 19.4121 24.206 19.4121 24.033C19.4121 23.86 19.5523 23.7198 19.7253 23.7198H23.4835C23.6565 23.7198 23.7967 23.86 23.7967 24.033C23.7967 24.206 23.6565 24.3462 23.4835 24.3462Z" fill="#1A4164"/>
<path d="M18.4726 23.1978H16.8022V24.8681H18.4726V23.1978Z" fill="#1A4164"/>
</g>
<defs>
<filter id="filter0_d_1041_384" x="0" y="0" width="42" height="42" filterUnits="userSpaceOnUse" color-interpolation-filters="sRGB">
<feFlood flood-opacity="0" result="BackgroundImageFix"/>
<feColorMatrix in="SourceAlpha" type="matrix" values="0 0 0 0 0 0 0 0 0 0 0 0 0 0 0 0 0 0 127 0" result="hardAlpha"/>
<feOffset dy="3"/>
<feGaussianBlur stdDeviation="3.5"/>
<feComposite in2="hardAlpha" operator="out"/>
<feColorMatrix type="matrix" values="0 0 0 0 0 0 0 0 0 0 0 0 0 0 0 0 0 0 0.09 0"/>
<feBlend mode="normal" in2="BackgroundImageFix" result="effect1_dropShadow_1041_384"/>
<feBlend mode="normal" in="SourceGraphic" in2="effect1_dropShadow_1041_384" result="shape"/>
</filter>
<clipPath id="clip0_1041_384">
<rect width="19" height="19" fill="white" transform="translate(12 9)"/>
</clipPath>
</defs>
</svg>
