<svg width="19" height="20" viewBox="0 0 19 20" fill="none" xmlns="http://www.w3.org/2000/svg">
<g clip-path="url(#clip0_1047_202)">
<path d="M16.7033 0.078125H2.29671V19.0781H12.7363L13.5714 15.9463L16.7033 15.1111V0.078125Z" fill="#EB868F"/>
<g filter="url(#filter0_di_1047_202)">
<path d="M12.7363 15.1111V19.0781L16.7033 15.1111H12.7363Z" fill="white"/>
</g>
<path d="M14.1978 3.73196H8.19351C8.02055 3.73196 7.88033 3.59178 7.88033 3.41878C7.88033 3.24577 8.02055 3.10559 8.19351 3.10559H14.1978C14.3708 3.10559 14.511 3.24577 14.511 3.41878C14.511 3.59178 14.3708 3.73196 14.1978 3.73196Z" fill="white"/>
<path d="M5.63737 4.56717C5.55723 4.56717 5.47706 4.5366 5.41592 4.47547L4.78955 3.84909C4.66724 3.72674 4.66724 3.52847 4.78955 3.40616C4.91186 3.2839 5.11017 3.2839 5.23244 3.40616L5.63737 3.81109L7.08625 2.36221C7.20856 2.23994 7.40687 2.23994 7.52914 2.36221C7.65145 2.48456 7.65145 2.68283 7.52914 2.80514L5.85881 4.47547C5.79767 4.5366 5.7175 4.56717 5.63737 4.56717Z" fill="white"/>
<path d="M14.1978 6.65506H7.72528C7.55232 6.65506 7.41209 6.51488 7.41209 6.34187C7.41209 6.16887 7.55232 6.02869 7.72528 6.02869H14.1978C14.3708 6.02869 14.511 6.16887 14.511 6.34187C14.511 6.51488 14.3708 6.65506 14.1978 6.65506Z" fill="white"/>
<path d="M6.47253 5.50671H4.8022V7.17704H6.47253V5.50671Z" fill="white"/>
<path d="M14.1978 9.57816H7.72528C7.55232 9.57816 7.41209 9.43797 7.41209 9.26497C7.41209 9.09196 7.55232 8.95178 7.72528 8.95178H14.1978C14.3708 8.95178 14.511 9.09196 14.511 9.26497C14.511 9.43797 14.3708 9.57816 14.1978 9.57816Z" fill="white"/>
<path d="M6.47253 8.42981H4.8022V10.1001H6.47253V8.42981Z" fill="white"/>
<path d="M14.1978 12.5013H7.72528C7.55232 12.5013 7.41209 12.3611 7.41209 12.1881C7.41209 12.0151 7.55232 11.8749 7.72528 11.8749H14.1978C14.3708 11.8749 14.511 12.0151 14.511 12.1881C14.511 12.3611 14.3708 12.5013 14.1978 12.5013Z" fill="white"/>
<path d="M6.47253 11.3529H4.8022V13.0232H6.47253V11.3529Z" fill="white"/>
<path d="M11.4835 15.4242H7.72528C7.55232 15.4242 7.41209 15.284 7.41209 15.111C7.41209 14.938 7.55232 14.7979 7.72528 14.7979H11.4835C11.6565 14.7979 11.7967 14.938 11.7967 15.111C11.7967 15.284 11.6565 15.4242 11.4835 15.4242Z" fill="white"/>
<path d="M6.47253 14.2759H4.8022V15.9462H6.47253V14.2759Z" fill="white"/>
</g>
<defs>
<filter id="filter0_di_1047_202" x="11.7363" y="15.1111" width="5.96703" height="5.96704" filterUnits="userSpaceOnUse" color-interpolation-filters="sRGB">
<feFlood flood-opacity="0" result="BackgroundImageFix"/>
<feColorMatrix in="SourceAlpha" type="matrix" values="0 0 0 0 0 0 0 0 0 0 0 0 0 0 0 0 0 0 127 0" result="hardAlpha"/>
<feOffset dy="1"/>
<feGaussianBlur stdDeviation="0.5"/>
<feComposite in2="hardAlpha" operator="out"/>
<feColorMatrix type="matrix" values="0 0 0 0 0.904167 0 0 0 0 0.889097 0 0 0 0 0.889097 0 0 0 0.98 0"/>
<feBlend mode="normal" in2="BackgroundImageFix" result="effect1_dropShadow_1047_202"/>
<feBlend mode="normal" in="SourceGraphic" in2="effect1_dropShadow_1047_202" result="shape"/>
<feColorMatrix in="SourceAlpha" type="matrix" values="0 0 0 0 0 0 0 0 0 0 0 0 0 0 0 0 0 0 127 0" result="hardAlpha"/>
<feOffset dy="85"/>
<feGaussianBlur stdDeviation="25"/>
<feComposite in2="hardAlpha" operator="arithmetic" k2="-1" k3="1"/>
<feColorMatrix type="matrix" values="0 0 0 0 0 0 0 0 0 0 0 0 0 0 0 0 0 0 0.06 0"/>
<feBlend mode="normal" in2="shape" result="effect2_innerShadow_1047_202"/>
</filter>
<clipPath id="clip0_1047_202">
<rect width="19" height="19" fill="white" transform="translate(0 0.078125)"/>
</clipPath>
</defs>
</svg>
